<svg width="1080" height="1080" viewBox="0 0 1080 1080" fill="none" xmlns="http://www.w3.org/2000/svg">
<path d="M692.741 739.992L725.882 783.857C725.882 783.857 780.063 810.851 792.028 829.874" stroke="#2A2A2A" stroke-width="11.6352" stroke-miterlimit="10" stroke-linecap="round" stroke-linejoin="round"/>
<path d="M791.699 777.613L726.057 783.062L726.154 850.741" stroke="#2A2A2A" stroke-width="11.6352" stroke-miterlimit="10" stroke-linecap="round" stroke-linejoin="round"/>
<path d="M374.091 736.656L347.796 784.923C347.796 784.923 298.211 819.635 289.174 840.21" stroke="#2A2A2A" stroke-width="11.6352" stroke-miterlimit="10" stroke-linecap="round" stroke-linejoin="round"/>
<path d="M281.785 788.512L347.505 784.207L357.414 851.148" stroke="#2A2A2A" stroke-width="11.6352" stroke-miterlimit="10" stroke-linecap="round" stroke-linejoin="round"/>
<path d="M449.006 137.442L498.611 233.491C511.972 259.379 551.299 246.018 546.141 217.337L526.923 110.565C524.15 95.1677 508.249 85.9177 493.492 91.1148L463.124 101.858C448.599 106.977 441.948 123.771 449.006 137.442Z" fill="#00AE90"/>
<path d="M553.781 108.042L521.474 211.208C512.767 239.016 550.116 257.186 566.618 233.179L628.072 143.762C636.934 130.867 632.144 113.104 617.988 106.433L588.842 92.6644C574.899 86.0905 558.377 93.3431 553.781 108.042Z" fill="#00AE90"/>
<path d="M540.358 818.819C719.964 818.819 865.563 673.22 865.563 493.614C865.563 314.009 719.964 168.41 540.358 168.41C360.753 168.41 215.154 314.009 215.154 493.614C215.154 673.22 360.753 818.819 540.358 818.819Z" fill="#00AE90"/>
<path d="M409.424 462.373C481.169 462.373 539.331 404.211 539.331 332.466C539.331 260.72 481.169 202.559 409.424 202.559C337.678 202.559 279.517 260.72 279.517 332.466C279.517 404.211 337.678 462.373 409.424 462.373Z" fill="#F5F7F5"/>
<path d="M671.274 462.373C743.02 462.373 801.181 404.211 801.181 332.466C801.181 260.72 743.02 202.559 671.274 202.559C599.529 202.559 541.367 260.72 541.367 332.466C541.367 404.211 599.529 462.373 671.274 462.373Z" fill="#F5F7F5"/>
<path d="M439.171 412.477C475.231 412.477 504.464 383.244 504.464 347.184C504.464 311.123 475.231 281.891 439.171 281.891C403.111 281.891 373.878 311.123 373.878 347.184C373.878 383.244 403.111 412.477 439.171 412.477Z" fill="#2A2A2A"/>
<path d="M645.56 412.477C681.621 412.477 710.853 383.244 710.853 347.184C710.853 311.123 681.621 281.891 645.56 281.891C609.5 281.891 580.268 311.123 580.268 347.184C580.268 383.244 609.5 412.477 645.56 412.477Z" fill="#2A2A2A"/>
<path opacity="0.2" d="M641.643 595.539C615.348 595.539 591.282 603.858 570.087 620.245C559.382 628.506 549.706 638.648 541.154 650.457C532.602 638.648 522.925 628.525 512.221 620.245C491.026 603.858 466.96 595.539 440.664 595.539C405.487 595.539 373.141 609.618 349.561 635.196C327.473 659.164 314.927 691.491 313.686 726.687C372.249 783.68 452.183 818.819 540.359 818.819C629.291 818.819 709.845 783.079 768.564 725.233C767.032 690.599 754.524 658.835 732.747 635.196C709.147 609.637 676.801 595.539 641.643 595.539Z" fill="#F5F7F5"/>
<path d="M545.032 328.18L612.575 446.879C613.68 448.837 613.719 451.222 612.652 453.2L546.312 576.281C543.869 580.839 537.353 580.858 534.851 576.34L467.29 453.918C466.204 451.94 466.204 449.555 467.309 447.596L533.668 328.238C536.131 323.778 542.511 323.739 545.032 328.18Z" fill="#F6C945"/>
<path d="M543.345 362.135L591.903 447.48C593.008 449.438 593.047 451.824 591.98 453.802L544.295 542.249C541.794 546.883 535.123 546.806 532.718 542.113L487.709 453.627C486.759 451.746 486.759 449.535 487.729 447.674L531.865 362.368C534.25 357.772 540.785 357.637 543.345 362.135Z" fill="#2A2A2A"/>
<path d="M592.174 453.43C592.174 453.43 541.27 410.903 487.729 453.954L519.822 516.745C519.822 516.745 533.94 538.018 558.16 516.551L592.174 453.43Z" fill="#DC4746"/>
<path d="M749.153 208.395C749.153 208.395 664.526 122.237 580.287 218.945" stroke="#2A2A2A" stroke-width="11.6352" stroke-miterlimit="10" stroke-linecap="round" stroke-linejoin="round"/>
<path d="M328.326 208.395C328.326 208.395 412.953 122.237 497.192 218.945" stroke="#2A2A2A" stroke-width="11.6352" stroke-miterlimit="10" stroke-linecap="round" stroke-linejoin="round"/>
<path d="M826.876 339.701C826.876 339.701 850.36 235.023 886.216 244.117C886.216 244.117 906.655 250.245 898.471 278.034C898.471 278.034 935.84 189.897 965.82 193.873C965.82 193.873 990.409 200.291 981.508 238.416C981.508 238.416 1028.73 234.111 1001.87 305.959C1001.87 305.959 1043.78 303.186 1026.38 358.666C1026.38 358.666 1008.81 539.225 789.469 633.975L826.876 339.701Z" fill="#00AE90"/>
<path d="M240.733 339.701C240.733 339.701 217.249 235.023 181.393 244.117C181.393 244.117 160.954 250.245 169.137 278.034C169.137 278.034 131.769 189.897 101.789 193.873C101.789 193.873 77.1998 200.291 86.1007 238.416C86.1007 238.416 38.8811 234.111 65.7391 305.959C65.7391 305.959 23.8329 303.186 41.2276 358.666C41.2276 358.666 58.7967 539.225 278.14 633.975L240.733 339.701Z" fill="#00AE90"/>
<path opacity="0.1" d="M815.88 978.573H265.283C240.17 978.573 217.617 958.599 214.767 933.758L215.911 950.59C218.761 975.14 241.314 995.405 265.865 995.405H809.888C833.857 995.405 855.557 976.575 859.551 953.169C850.689 968.295 833.857 978.573 815.88 978.573Z" fill="#231F20"/>
<path d="M857.825 571.555H218.199C193.358 571.555 175.381 591.528 178.232 616.37L215.911 950.882C218.761 975.432 241.314 995.697 265.864 995.697H809.888C834.729 995.697 857.263 975.723 859.842 950.882L897.812 616.37C900.643 591.528 882.666 571.555 857.825 571.555ZM330.944 943.455H321.519C309.244 943.455 298.113 933.468 296.969 921.193L274.998 698.553C273.854 686.278 282.988 676.291 295.263 676.291H304.687C316.962 676.291 328.093 686.278 329.238 698.553L351.209 921.193C352.333 933.468 343.2 943.455 330.944 943.455ZM436.824 943.455H427.4C415.125 943.455 404.556 933.468 403.994 921.193L393.154 698.844C392.591 686.569 401.996 676.582 414.562 676.582H423.987C436.262 676.582 446.811 686.569 447.393 698.844L458.233 921.193C458.815 933.177 449.1 943.455 436.824 943.455ZM564.986 920.902C564.986 933.177 554.999 943.455 542.433 943.455H533.009C520.734 943.455 510.456 933.468 510.456 920.902V698.572C510.456 686.297 520.443 676.019 533.009 676.019H542.433C554.709 676.019 564.986 686.006 564.986 698.572V920.902ZM672.011 920.902C671.448 933.177 660.88 943.164 648.605 943.164H639.18C626.905 943.164 617.209 933.177 617.771 920.902L628.612 698.553C629.174 686.278 639.743 676.291 652.018 676.291H661.442C673.717 676.291 683.413 686.278 682.851 698.553L672.011 920.902ZM800.754 698.572L778.783 921.212C777.639 933.487 766.508 943.474 754.233 943.474H745.099C732.824 943.474 723.691 933.487 724.835 921.212L746.806 698.572C747.95 686.297 759.081 676.31 771.356 676.31H780.781C793.036 676.02 802.17 686.297 800.754 698.572Z" fill="#2BA8E0"/>
<path opacity="0.1" d="M178.231 616.368L182.226 651.467H893.797L897.792 616.368C899.789 599.807 892.09 585.535 879.524 577.836H196.499C183.933 585.244 176.525 599.807 178.231 616.368Z" fill="#231F20"/>
<path d="M933.473 618.637C932.329 628.062 923.195 636.051 913.771 636.051H162.253C152.557 636.051 143.694 628.353 142.55 618.637L137.411 579.543C136.267 570.118 142.841 562.129 152.537 562.129H923.758C933.454 562.129 940.319 569.828 938.884 579.543L933.473 618.637Z" fill="#2BA8E0"/>
<path d="M184.224 866.973L203.635 876.669L336.063 606.364L316.652 596.668L184.224 866.973Z" fill="#B9B9BA"/>
<path d="M178.522 877.812C175.963 869.241 181.082 860.107 189.653 857.548C198.496 854.988 207.358 860.107 209.918 868.679C212.478 877.25 207.358 886.384 198.787 888.943C190.216 891.503 181.082 886.364 178.522 877.812Z" fill="#B9B9BA"/>
<path d="M186.221 875.524C184.786 870.948 187.366 866.391 191.923 864.956C196.48 863.521 201.056 866.1 202.491 870.657C203.926 875.214 201.347 879.791 196.79 881.226C192.214 882.661 187.656 880.101 186.221 875.524Z" fill="#5E5E5E"/>
<path d="M312.095 602.367C309.535 593.524 314.654 584.662 323.226 582.102C331.797 579.543 340.931 584.662 343.49 593.233C346.05 601.805 340.931 610.938 332.359 613.498C323.807 616.077 314.674 611.229 312.095 602.367Z" fill="white"/>
<path d="M319.812 600.368C318.377 595.792 320.956 591.235 325.514 589.8C330.071 588.365 334.647 590.944 336.082 595.501C337.517 600.058 334.938 604.635 330.381 606.07C325.804 607.233 320.937 604.654 319.812 600.368Z" fill="#5E5E5E"/>
<path d="M903.493 873.528L883.791 882.099L766.76 604.657L786.734 596.086L903.493 873.528Z" fill="#B9B9BA"/>
<path d="M908.632 884.656C911.774 876.085 907.197 866.68 898.645 863.829C890.074 860.688 880.669 865.264 877.818 873.816C874.677 882.387 879.253 891.792 887.805 894.643C896.357 897.494 905.782 893.227 908.632 884.656Z" fill="#B9B9BA"/>
<path d="M901.205 881.807C902.64 877.522 900.352 872.674 896.066 870.967C891.78 869.532 886.932 871.82 885.226 876.106C883.791 880.392 886.079 885.24 890.365 886.946C894.65 888.653 899.498 886.364 901.205 881.807Z" fill="#5E5E5E"/>
<path d="M791.039 602.098C794.18 593.526 789.604 584.121 781.052 581.271C772.48 578.129 763.075 582.706 760.225 591.257C757.083 599.829 761.66 609.234 770.212 612.084C778.473 615.226 787.897 610.649 791.039 602.098Z" fill="white"/>
<path d="M783.341 599.518C784.776 595.233 782.487 590.385 778.202 588.678C773.916 587.243 769.068 589.531 767.362 593.817C765.927 598.103 768.215 602.951 772.501 604.657C777.058 606.364 781.906 604.095 783.341 599.518Z" fill="#5E5E5E"/>
</svg>
